<!-- Generated by IcoMoon.io -->
<svg version="1.1" xmlns="http://www.w3.org/2000/svg" width="512" height="512" viewBox="0 0 512 512">
<title></title>
<g id="icomoon-ignore">
</g>
<path d="M339.714 373.428l42-198c3.714-17.428-6.286-24.286-17.714-20l-246.857 95.143c-16.857 6.571-16.572 16-2.857 20.285l63.143 19.714 146.571-92.286c6.857-4.572 13.143-2 8 2.571l-118.572 107.143-4.572 65.143c6.572 0 9.428-2.857 12.857-6.286l30.857-29.714 64 47.143c11.714 6.572 20 3.143 23.143-10.857zM512 256c0 141.428-114.572 256-256 256s-256-114.572-256-256 114.572-256 256-256 256 114.572 256 256z"></path>
</svg>
